<svg width="104" height="12" viewBox="0 0 104 12" fill="none" xmlns="http://www.w3.org/2000/svg">
<path d="M5.726 11V8.592H0.602V7.458L5.698 0.569999H7.014V7.458H8.372V8.592H7.014V11H5.726ZM1.638 7.948L1.442 7.458H5.726V1.718L6.132 1.83L1.638 7.948ZM14.9337 11V8.592H9.80973V7.458L14.9057 0.569999H16.2217V7.458H17.5797V8.592H16.2217V11H14.9337ZM10.8457 7.948L10.6497 7.458H14.9337V1.718L15.3397 1.83L10.8457 7.948ZM23.4975 11.168C22.6668 11.168 21.9388 10.944 21.3135 10.496C20.6975 10.0387 20.2168 9.40867 19.8715 8.606C19.5261 7.794 19.3535 6.85133 19.3535 5.778C19.3535 4.70467 19.5261 3.76667 19.8715 2.964C20.2168 2.152 20.6975 1.522 21.3135 1.074C21.9295 0.625999 22.6528 0.402 23.4835 0.402C24.3141 0.402 25.0375 0.625999 25.6535 1.074C26.2695 1.522 26.7501 2.152 27.0955 2.964C27.4501 3.76667 27.6275 4.70467 27.6275 5.778C27.6275 6.85133 27.4548 7.794 27.1095 8.606C26.7641 9.418 26.2788 10.048 25.6535 10.496C25.0375 10.944 24.3188 11.168 23.4975 11.168ZM23.4975 9.894C24.0575 9.894 24.5428 9.726 24.9535 9.39C25.3641 9.04467 25.6815 8.564 25.9055 7.948C26.1388 7.332 26.2555 6.60867 26.2555 5.778C26.2555 4.94733 26.1388 4.224 25.9055 3.608C25.6815 2.992 25.3595 2.516 24.9395 2.18C24.5288 1.844 24.0435 1.676 23.4835 1.676C22.9235 1.676 22.4381 1.844 22.0275 2.18C21.6168 2.516 21.2948 2.992 21.0615 3.608C20.8375 4.224 20.7255 4.94733 20.7255 5.778C20.7255 6.59933 20.8375 7.318 21.0615 7.934C21.2948 8.55 21.6168 9.03067 22.0275 9.376C22.4475 9.72133 22.9375 9.894 23.4975 9.894ZM32.5923 11V8.102H29.6943V6.884H32.5923V4H33.8103V6.884H36.6943V8.102H33.8103V11H32.5923ZM41.7046 11V0.569999H45.3866C46.0772 0.569999 46.6839 0.700666 47.2066 0.962C47.7292 1.22333 48.1352 1.59667 48.4246 2.082C48.7232 2.56733 48.8726 3.13667 48.8726 3.79C48.8726 4.52733 48.6859 5.15267 48.3126 5.666C47.9392 6.17933 47.4352 6.548 46.8006 6.772L49.2226 11H47.6266L45.0786 6.478L45.9886 7.01H43.0766V11H41.7046ZM43.0766 5.75H45.4286C45.8392 5.75 46.1986 5.67067 46.5066 5.512C46.8146 5.35333 47.0526 5.12467 47.2206 4.826C47.3979 4.52733 47.4866 4.182 47.4866 3.79C47.4866 3.38867 47.3979 3.04333 47.2206 2.754C47.0526 2.45533 46.8146 2.22667 46.5066 2.068C46.1986 1.90933 45.8392 1.83 45.4286 1.83H43.0766V5.75ZM53.9569 11.168C53.2289 11.168 52.5802 10.9953 52.0109 10.65C51.4415 10.3047 50.9935 9.83333 50.6669 9.236C50.3402 8.62933 50.1769 7.95267 50.1769 7.206C50.1769 6.45 50.3355 5.778 50.6529 5.19C50.9795 4.602 51.4182 4.14 51.9689 3.804C52.5289 3.45867 53.1542 3.286 53.8449 3.286C54.4049 3.286 54.8995 3.38867 55.3289 3.594C55.7675 3.79 56.1362 4.06067 56.4349 4.406C56.7429 4.742 56.9762 5.12933 57.1349 5.568C57.3029 5.99733 57.3869 6.44533 57.3869 6.912C57.3869 7.01467 57.3775 7.13133 57.3589 7.262C57.3495 7.38333 57.3355 7.5 57.3169 7.612H51.1289V6.492H56.5609L55.9449 6.996C56.0289 6.51067 55.9822 6.07667 55.8049 5.694C55.6275 5.31133 55.3662 5.008 55.0209 4.784C54.6755 4.56 54.2835 4.448 53.8449 4.448C53.4062 4.448 53.0049 4.56 52.6409 4.784C52.2769 5.008 51.9922 5.33 51.7869 5.75C51.5909 6.16067 51.5115 6.65067 51.5489 7.22C51.5115 7.77067 51.5955 8.256 51.8009 8.676C52.0155 9.08667 52.3142 9.40867 52.6969 9.642C53.0889 9.866 53.5135 9.978 53.9709 9.978C54.4749 9.978 54.8995 9.86133 55.2449 9.628C55.5902 9.39467 55.8702 9.096 56.0849 8.732L57.1769 9.292C57.0275 9.63733 56.7942 9.95467 56.4769 10.244C56.1689 10.524 55.8002 10.748 55.3709 10.916C54.9509 11.084 54.4795 11.168 53.9569 11.168ZM61.3278 11L58.3738 3.454H59.8298L62.1958 9.838H61.6918L64.0718 3.454H65.5278L62.5598 11H61.3278ZM66.9726 11V3.454H68.2746V11H66.9726ZM66.9726 2.25V0.569999H68.2746V2.25H66.9726ZM74.0469 11.168C73.3189 11.168 72.6702 10.9953 72.1009 10.65C71.5315 10.3047 71.0835 9.83333 70.7569 9.236C70.4302 8.62933 70.2669 7.95267 70.2669 7.206C70.2669 6.45 70.4255 5.778 70.7429 5.19C71.0695 4.602 71.5082 4.14 72.0589 3.804C72.6189 3.45867 73.2442 3.286 73.9349 3.286C74.4949 3.286 74.9895 3.38867 75.4189 3.594C75.8575 3.79 76.2262 4.06067 76.5249 4.406C76.8329 4.742 77.0662 5.12933 77.2249 5.568C77.3929 5.99733 77.4769 6.44533 77.4769 6.912C77.4769 7.01467 77.4675 7.13133 77.4489 7.262C77.4395 7.38333 77.4255 7.5 77.4069 7.612H71.2189V6.492H76.6509L76.0349 6.996C76.1189 6.51067 76.0722 6.07667 75.8949 5.694C75.7175 5.31133 75.4562 5.008 75.1109 4.784C74.7655 4.56 74.3735 4.448 73.9349 4.448C73.4962 4.448 73.0949 4.56 72.7309 4.784C72.3669 5.008 72.0822 5.33 71.8769 5.75C71.6809 6.16067 71.6015 6.65067 71.6389 7.22C71.6015 7.77067 71.6855 8.256 71.8909 8.676C72.1055 9.08667 72.4042 9.40867 72.7869 9.642C73.1789 9.866 73.6035 9.978 74.0609 9.978C74.5649 9.978 74.9895 9.86133 75.3349 9.628C75.6802 9.39467 75.9602 9.096 76.1749 8.732L77.2669 9.292C77.1175 9.63733 76.8842 9.95467 76.5669 10.244C76.2589 10.524 75.8902 10.748 75.4609 10.916C75.0409 11.084 74.5695 11.168 74.0469 11.168ZM81.1905 11L78.6005 3.454H80.0425L82.1005 9.768L81.5965 9.754L83.6125 3.454H84.8445L86.8605 9.754L86.3565 9.768L88.4285 3.454H89.8565L87.2665 11H86.0205L84.0325 4.7H84.4245L82.4365 11H81.1905ZM94.6362 11.168C93.9082 11.168 93.2595 10.9953 92.6902 10.65C92.1208 10.3047 91.6728 9.83333 91.3462 9.236C91.0195 8.62933 90.8562 7.95267 90.8562 7.206C90.8562 6.45 91.0148 5.778 91.3322 5.19C91.6588 4.602 92.0975 4.14 92.6482 3.804C93.2082 3.45867 93.8335 3.286 94.5242 3.286C95.0842 3.286 95.5788 3.38867 96.0082 3.594C96.4468 3.79 96.8155 4.06067 97.1142 4.406C97.4222 4.742 97.6555 5.12933 97.8142 5.568C97.9822 5.99733 98.0662 6.44533 98.0662 6.912C98.0662 7.01467 98.0568 7.13133 98.0382 7.262C98.0288 7.38333 98.0148 7.5 97.9962 7.612H91.8082V6.492H97.2402L96.6242 6.996C96.7082 6.51067 96.6615 6.07667 96.4842 5.694C96.3068 5.31133 96.0455 5.008 95.7002 4.784C95.3548 4.56 94.9628 4.448 94.5242 4.448C94.0855 4.448 93.6842 4.56 93.3202 4.784C92.9562 5.008 92.6715 5.33 92.4662 5.75C92.2702 6.16067 92.1908 6.65067 92.2282 7.22C92.1908 7.77067 92.2748 8.256 92.4802 8.676C92.6948 9.08667 92.9935 9.40867 93.3762 9.642C93.7682 9.866 94.1928 9.978 94.6502 9.978C95.1542 9.978 95.5788 9.86133 95.9242 9.628C96.2695 9.39467 96.5495 9.096 96.7642 8.732L97.8562 9.292C97.7068 9.63733 97.4735 9.95467 97.1562 10.244C96.8482 10.524 96.4795 10.748 96.0502 10.916C95.6302 11.084 95.1588 11.168 94.6362 11.168ZM100.044 11V3.454H101.318V4.84L101.178 4.644C101.355 4.21467 101.626 3.89733 101.99 3.692C102.354 3.47733 102.797 3.37 103.32 3.37H103.782V4.602H103.124C102.592 4.602 102.162 4.77 101.836 5.106C101.509 5.43267 101.346 5.89933 101.346 6.506V11H100.044Z" fill="#596780"/>
</svg>
