<svg width="140" height="56" viewBox="0 0 140 56" fill="none" xmlns="http://www.w3.org/2000/svg">
<rect width="140" height="56" rx="10" fill="#3563E9"/>
<path d="M33.6051 35V23.08H38.0371C38.8478 23.08 39.5625 23.2293 40.1811 23.528C40.8105 23.816 41.3011 24.2427 41.6531 24.808C42.0051 25.3627 42.1811 26.04 42.1811 26.84C42.1811 27.6613 41.9838 28.36 41.5891 28.936C41.2051 29.512 40.6825 29.9387 40.0211 30.216L42.7571 35H40.2931L37.3651 29.768L38.7731 30.6H35.7811V35H33.6051ZM35.7811 28.68H38.0691C38.4638 28.68 38.8051 28.6053 39.0931 28.456C39.3811 28.296 39.6051 28.0773 39.7651 27.8C39.9251 27.5227 40.0051 27.2027 40.0051 26.84C40.0051 26.4667 39.9251 26.1467 39.7651 25.88C39.6051 25.6027 39.3811 25.3893 39.0931 25.24C38.8051 25.08 38.4638 25 38.0691 25H35.7811V28.68ZM47.6509 35.192C46.7549 35.192 45.9709 34.9893 45.2989 34.584C44.6269 34.1787 44.1042 33.6293 43.7309 32.936C43.3575 32.2427 43.1709 31.4747 43.1709 30.632C43.1709 29.7573 43.3575 28.984 43.7309 28.312C44.1149 27.6293 44.6322 27.0907 45.2829 26.696C45.9442 26.3013 46.6802 26.104 47.4909 26.104C48.1735 26.104 48.7709 26.216 49.2829 26.44C49.8055 26.664 50.2482 26.9733 50.6109 27.368C50.9735 27.7627 51.2509 28.216 51.4429 28.728C51.6349 29.2293 51.7309 29.7733 51.7309 30.36C51.7309 30.5093 51.7202 30.664 51.6989 30.824C51.6882 30.984 51.6615 31.1227 51.6189 31.24H44.8989V29.64H50.4349L49.4429 30.392C49.5389 29.9013 49.5122 29.464 49.3629 29.08C49.2242 28.696 48.9895 28.392 48.6589 28.168C48.3389 27.944 47.9495 27.832 47.4909 27.832C47.0535 27.832 46.6642 27.944 46.3229 28.168C45.9815 28.3813 45.7202 28.7013 45.5389 29.128C45.3682 29.544 45.3042 30.0507 45.3469 30.648C45.3042 31.1813 45.3735 31.656 45.5549 32.072C45.7469 32.4773 46.0242 32.792 46.3869 33.016C46.7602 33.24 47.1869 33.352 47.6669 33.352C48.1469 33.352 48.5522 33.2507 48.8829 33.048C49.2242 32.8453 49.4909 32.5733 49.6829 32.232L51.3789 33.064C51.2082 33.48 50.9415 33.848 50.5789 34.168C50.2162 34.488 49.7842 34.7387 49.2829 34.92C48.7922 35.1013 48.2482 35.192 47.6509 35.192ZM53.3198 35V26.296H55.2878V28.008L55.1278 27.704C55.3304 27.1813 55.6611 26.7867 56.1198 26.52C56.5891 26.2427 57.1331 26.104 57.7518 26.104C58.3918 26.104 58.9571 26.2427 59.4478 26.52C59.9491 26.7973 60.3384 27.1867 60.6158 27.688C60.8931 28.1787 61.0318 28.7493 61.0318 29.4V35H58.9358V29.896C58.9358 29.512 58.8611 29.1813 58.7118 28.904C58.5624 28.6267 58.3544 28.4133 58.0878 28.264C57.8318 28.104 57.5278 28.024 57.1758 28.024C56.8344 28.024 56.5304 28.104 56.2638 28.264C55.9971 28.4133 55.7891 28.6267 55.6398 28.904C55.4904 29.1813 55.4158 29.512 55.4158 29.896V35H53.3198ZM66.7721 35.096C65.7908 35.096 65.0281 34.8293 64.4841 34.296C63.9508 33.752 63.6841 32.9893 63.6841 32.008V28.168H62.1801V26.296H62.3401C62.7668 26.296 63.0975 26.184 63.3321 25.96C63.5668 25.736 63.6841 25.4107 63.6841 24.984V24.312H65.7801V26.296H67.7801V28.168H65.7801V31.896C65.7801 32.184 65.8281 32.4293 65.9241 32.632C66.0308 32.8347 66.1908 32.9893 66.4041 33.096C66.6281 33.2027 66.9108 33.256 67.2521 33.256C67.3268 33.256 67.4121 33.2507 67.5081 33.24C67.6148 33.2293 67.7161 33.2187 67.8121 33.208V35C67.6628 35.0213 67.4921 35.0427 67.3001 35.064C67.1081 35.0853 66.9321 35.096 66.7721 35.096ZM72.4333 35V23.08H74.1293L80.6892 31.912L79.8093 32.088V23.08H81.9853V35H80.2733L73.8093 26.104L74.6093 25.928V35H72.4333ZM88.3726 35.192C87.5193 35.192 86.7406 34.9947 86.0366 34.6C85.3433 34.2053 84.7886 33.6667 84.3726 32.984C83.9673 32.3013 83.7646 31.5227 83.7646 30.648C83.7646 29.7733 83.9673 28.9947 84.3726 28.312C84.7886 27.6293 85.3433 27.0907 86.0366 26.696C86.73 26.3013 87.5086 26.104 88.3726 26.104C89.226 26.104 89.9993 26.3013 90.6926 26.696C91.386 27.0907 91.9353 27.6293 92.3406 28.312C92.7566 28.984 92.9646 29.7627 92.9646 30.648C92.9646 31.5227 92.7566 32.3013 92.3406 32.984C91.9246 33.6667 91.37 34.2053 90.6766 34.6C89.9833 34.9947 89.2153 35.192 88.3726 35.192ZM88.3726 33.272C88.842 33.272 89.2526 33.16 89.6046 32.936C89.9673 32.712 90.25 32.4027 90.4526 32.008C90.666 31.6027 90.7726 31.1493 90.7726 30.648C90.7726 30.136 90.666 29.688 90.4526 29.304C90.25 28.9093 89.9673 28.6 89.6046 28.376C89.2526 28.1413 88.842 28.024 88.3726 28.024C87.8926 28.024 87.4713 28.1413 87.1086 28.376C86.746 28.6 86.458 28.9093 86.2446 29.304C86.042 29.688 85.9406 30.136 85.9406 30.648C85.9406 31.1493 86.042 31.6027 86.2446 32.008C86.458 32.4027 86.746 32.712 87.1086 32.936C87.4713 33.16 87.8926 33.272 88.3726 33.272ZM96.5899 35L93.5979 26.296H95.8059L97.9979 32.904L97.2299 32.888L99.5659 26.296H101.422L103.742 32.888L102.974 32.904L105.166 26.296H107.374L104.382 35H102.51L100.142 28.104H100.846L98.4459 35H96.5899Z" fill="white"/>
</svg>
