<svg width="220" height="72" viewBox="0 0 220 72" fill="none" xmlns="http://www.w3.org/2000/svg">
<g clip-path="url(#clip0_44_16309)">
<path d="M2.304 33V9.16H5.696L18.816 26.824L17.056 27.176V9.16H21.408V33H17.984L5.056 15.208L6.656 14.856V33H2.304ZM24.7108 33V15.592H28.9028V33H24.7108ZM24.7108 13.64V9.16H28.9028V13.64H24.7108ZM38.4373 33.384C36.5813 33.384 34.9599 32.9467 33.5733 32.072C32.2079 31.176 31.2692 29.9707 30.7572 28.456L33.8932 26.952C34.3412 27.9333 34.9599 28.7013 35.7493 29.256C36.5599 29.8107 37.4559 30.088 38.4373 30.088C39.2053 30.088 39.8133 29.9173 40.2613 29.576C40.7093 29.2347 40.9333 28.7867 40.9333 28.232C40.9333 27.8907 40.8373 27.6133 40.6453 27.4C40.4746 27.1653 40.2293 26.9733 39.9093 26.824C39.6106 26.6533 39.2799 26.5147 38.9173 26.408L36.0693 25.608C34.5972 25.1813 33.4772 24.5307 32.7092 23.656C31.9626 22.7813 31.5892 21.7467 31.5892 20.552C31.5892 19.4853 31.8559 18.5573 32.3893 17.768C32.9439 16.9573 33.7013 16.328 34.6613 15.88C35.6426 15.432 36.7626 15.208 38.0213 15.208C39.6639 15.208 41.1146 15.6027 42.3733 16.392C43.6319 17.1813 44.5279 18.2907 45.0613 19.72L41.8613 21.224C41.5626 20.4347 41.0613 19.8053 40.3573 19.336C39.6533 18.8667 38.8639 18.632 37.9893 18.632C37.2853 18.632 36.7306 18.792 36.3253 19.112C35.9199 19.432 35.7173 19.848 35.7173 20.36C35.7173 20.68 35.8026 20.9573 35.9733 21.192C36.1439 21.4267 36.3786 21.6187 36.6773 21.768C36.9973 21.9173 37.3599 22.056 37.7653 22.184L40.5493 23.016C41.9786 23.4427 43.0773 24.0827 43.8453 24.936C44.6346 25.7893 45.0293 26.8347 45.0293 28.072C45.0293 29.1173 44.7519 30.0453 44.1973 30.856C43.6426 31.6453 42.8746 32.264 41.8933 32.712C40.9119 33.16 39.7599 33.384 38.4373 33.384ZM53.9147 33.384C52.0587 33.384 50.4374 32.9467 49.0507 32.072C47.6854 31.176 46.7467 29.9707 46.2347 28.456L49.3707 26.952C49.8187 27.9333 50.4374 28.7013 51.2267 29.256C52.0374 29.8107 52.9334 30.088 53.9147 30.088C54.6827 30.088 55.2907 29.9173 55.7387 29.576C56.1867 29.2347 56.4107 28.7867 56.4107 28.232C56.4107 27.8907 56.3147 27.6133 56.1227 27.4C55.9521 27.1653 55.7067 26.9733 55.3867 26.824C55.0881 26.6533 54.7574 26.5147 54.3947 26.408L51.5467 25.608C50.0747 25.1813 48.9547 24.5307 48.1867 23.656C47.4401 22.7813 47.0667 21.7467 47.0667 20.552C47.0667 19.4853 47.3334 18.5573 47.8667 17.768C48.4214 16.9573 49.1787 16.328 50.1387 15.88C51.1201 15.432 52.2401 15.208 53.4987 15.208C55.1414 15.208 56.5921 15.6027 57.8507 16.392C59.1094 17.1813 60.0054 18.2907 60.5387 19.72L57.3387 21.224C57.0401 20.4347 56.5387 19.8053 55.8347 19.336C55.1307 18.8667 54.3414 18.632 53.4667 18.632C52.7627 18.632 52.2081 18.792 51.8027 19.112C51.3974 19.432 51.1947 19.848 51.1947 20.36C51.1947 20.68 51.2801 20.9573 51.4507 21.192C51.6214 21.4267 51.8561 21.6187 52.1547 21.768C52.4747 21.9173 52.8374 22.056 53.2427 22.184L56.0267 23.016C57.4561 23.4427 58.5547 24.0827 59.3227 24.936C60.1121 25.7893 60.5068 26.8347 60.5068 28.072C60.5068 29.1173 60.2294 30.0453 59.6747 30.856C59.1201 31.6453 58.3521 32.264 57.3707 32.712C56.3894 33.16 55.2374 33.384 53.9147 33.384ZM68.0483 33.384C66.8323 33.384 65.7763 33.1813 64.8802 32.776C63.9842 32.3707 63.2909 31.7947 62.8002 31.048C62.3096 30.28 62.0642 29.3947 62.0642 28.392C62.0642 27.432 62.2776 26.5787 62.7042 25.832C63.1309 25.064 63.7922 24.424 64.6883 23.912C65.5842 23.4 66.7149 23.0373 68.0803 22.824L73.7763 21.896V25.096L68.8802 25.928C68.0483 26.0773 67.4296 26.344 67.0243 26.728C66.6189 27.112 66.4163 27.6133 66.4163 28.232C66.4163 28.8293 66.6403 29.3093 67.0883 29.672C67.5576 30.0133 68.1336 30.184 68.8162 30.184C69.6909 30.184 70.4589 30.0027 71.1203 29.64C71.8029 29.256 72.3256 28.7333 72.6883 28.072C73.0723 27.4107 73.2643 26.6853 73.2643 25.896V21.416C73.2643 20.6693 72.9656 20.0507 72.3683 19.56C71.7923 19.048 71.0243 18.792 70.0642 18.792C69.1683 18.792 68.3683 19.0373 67.6643 19.528C66.9816 19.9973 66.4803 20.6267 66.1603 21.416L62.7362 19.752C63.0776 18.8347 63.6109 18.0453 64.3363 17.384C65.0829 16.7013 65.9576 16.168 66.9602 15.784C67.9629 15.4 69.0509 15.208 70.2242 15.208C71.6536 15.208 72.9123 15.4747 74.0003 16.008C75.0883 16.52 75.9309 17.2453 76.5283 18.184C77.1469 19.1013 77.4563 20.1787 77.4563 21.416V33H73.4883V30.024L74.3843 29.96C73.9363 30.7067 73.4029 31.336 72.7843 31.848C72.1656 32.3387 71.4616 32.7227 70.6723 33C69.8829 33.256 69.0083 33.384 68.0483 33.384ZM80.3707 33V15.592H84.3067V19.016L83.9867 18.408C84.3921 17.3627 85.0534 16.5733 85.9707 16.04C86.9094 15.4853 87.9974 15.208 89.2347 15.208C90.5147 15.208 91.6454 15.4853 92.6267 16.04C93.6294 16.5947 94.4081 17.3733 94.9627 18.376C95.5174 19.3573 95.7947 20.4987 95.7947 21.8V33H91.6027V22.792C91.6027 22.024 91.4534 21.3627 91.1547 20.808C90.8561 20.2533 90.4401 19.8267 89.9067 19.528C89.3947 19.208 88.7867 19.048 88.0827 19.048C87.4001 19.048 86.7921 19.208 86.2587 19.528C85.7254 19.8267 85.3094 20.2533 85.0107 20.808C84.7121 21.3627 84.5627 22.024 84.5627 22.792V33H80.3707ZM114.755 33.384C113.048 33.384 111.47 33.0747 110.019 32.456C108.568 31.8373 107.299 30.9733 106.211 29.864C105.123 28.7547 104.27 27.4533 103.651 25.96C103.054 24.4667 102.755 22.8347 102.755 21.064C102.755 19.2933 103.043 17.6613 103.619 16.168C104.216 14.6533 105.048 13.352 106.115 12.264C107.203 11.1547 108.472 10.3013 109.923 9.704C111.374 9.08533 112.952 8.776 114.659 8.776C116.366 8.776 117.891 9.064 119.235 9.64C120.6 10.216 121.752 10.984 122.691 11.944C123.63 12.8827 124.302 13.9173 124.707 15.048L120.835 16.904C120.387 15.6667 119.63 14.664 118.563 13.896C117.496 13.128 116.195 12.744 114.659 12.744C113.166 12.744 111.843 13.096 110.691 13.8C109.56 14.504 108.675 15.4747 108.035 16.712C107.416 17.9493 107.107 19.4 107.107 21.064C107.107 22.728 107.427 24.1893 108.067 25.448C108.728 26.6853 109.635 27.656 110.787 28.36C111.939 29.064 113.262 29.416 114.755 29.416C115.971 29.416 117.091 29.1813 118.115 28.712C119.139 28.2213 119.96 27.5387 120.579 26.664C121.198 25.768 121.507 24.712 121.507 23.496V21.672L123.491 23.4H114.659V19.72H125.859V22.12C125.859 23.9547 125.55 25.576 124.931 26.984C124.312 28.392 123.47 29.576 122.403 30.536C121.358 31.4747 120.174 32.1893 118.851 32.68C117.528 33.1493 116.163 33.384 114.755 33.384ZM132.254 33V13H126.078V9.16H142.718V13H136.638V33H132.254ZM149.653 26.152V22.472H163.253V26.152H149.653ZM172.096 33V9.16H180.96C182.582 9.16 184.011 9.45867 185.248 10.056C186.507 10.632 187.488 11.4853 188.192 12.616C188.896 13.7253 189.248 15.08 189.248 16.68C189.248 18.3227 188.854 19.72 188.064 20.872C187.296 22.024 186.251 22.8773 184.928 23.432L190.4 33H185.472L179.616 22.536L182.432 24.2H176.448V33H172.096ZM176.448 20.36H181.024C181.814 20.36 182.496 20.2107 183.072 19.912C183.648 19.592 184.096 19.1547 184.416 18.6C184.736 18.0453 184.896 17.4053 184.896 16.68C184.896 15.9333 184.736 15.2933 184.416 14.76C184.096 14.2053 183.648 13.7787 183.072 13.48C182.496 13.16 181.814 13 181.024 13H176.448V20.36Z" fill="#1A202C"/>
<g clip-path="url(#clip1_44_16309)">
<path fill-rule="evenodd" clip-rule="evenodd" d="M9.16664 52.6583C9.22421 52.4758 9.33846 52.3164 9.49281 52.2032C9.64717 52.09 9.83358 52.029 10.025 52.029C10.2164 52.029 10.4028 52.09 10.5571 52.2032C10.7115 52.3164 10.8257 52.4758 10.8833 52.6583L12.4333 57.425H17.4333C17.6315 57.4175 17.8268 57.4751 17.9892 57.589C18.1516 57.7029 18.2723 57.8669 18.3327 58.0558C18.3932 58.2448 18.3902 58.4483 18.324 58.6354C18.2579 58.8224 18.1324 58.9827 17.9666 59.0917L13.9083 62.0333L15.4583 66.8083C15.5196 66.9902 15.5212 67.1869 15.4627 67.3698C15.4043 67.5526 15.2889 67.7119 15.1335 67.8246C14.9781 67.9372 14.7907 67.9972 14.5988 67.9957C14.4068 67.9943 14.2204 67.9316 14.0666 67.8167L9.99998 64.8417L5.94164 67.7917C5.7879 67.9066 5.60145 67.9693 5.40951 67.9707C5.21758 67.9721 5.03022 67.9122 4.87479 67.7996C4.71936 67.6869 4.604 67.5276 4.54557 67.3448C4.48713 67.1619 4.48868 66.9652 4.54998 66.7833L6.09998 62.0083L2.04164 59.0667C1.87588 58.9577 1.75035 58.7974 1.68424 58.6104C1.61813 58.4233 1.61508 58.2198 1.67554 58.0308C1.736 57.8419 1.85666 57.6779 2.01907 57.564C2.18149 57.4501 2.37673 57.3925 2.57498 57.4H7.57498L9.16664 52.6583Z" fill="#FBAD39"/>
<path fill-rule="evenodd" clip-rule="evenodd" d="M31.1666 52.6583C31.2242 52.4758 31.3385 52.3164 31.4928 52.2032C31.6472 52.09 31.8336 52.029 32.025 52.029C32.2164 52.029 32.4028 52.09 32.5571 52.2032C32.7115 52.3164 32.8257 52.4758 32.8833 52.6583L34.4333 57.425H39.4333C39.6315 57.4175 39.8268 57.4751 39.9892 57.589C40.1516 57.7029 40.2723 57.8669 40.3327 58.0558C40.3932 58.2448 40.3902 58.4483 40.324 58.6354C40.2579 58.8224 40.1324 58.9827 39.9666 59.0917L35.9083 62.0333L37.4583 66.8083C37.5196 66.9902 37.5212 67.1869 37.4627 67.3698C37.4043 67.5526 37.2889 67.7119 37.1335 67.8246C36.9781 67.9372 36.7907 67.9972 36.5988 67.9957C36.4068 67.9943 36.2204 67.9316 36.0666 67.8167L32 64.8417L27.9416 67.7917C27.7879 67.9066 27.6014 67.9693 27.4095 67.9707C27.2176 67.9721 27.0302 67.9122 26.8748 67.7996C26.7194 67.6869 26.604 67.5276 26.5456 67.3448C26.4871 67.1619 26.4887 66.9652 26.55 66.7833L28.1 62.0083L24.0416 59.0667C23.8759 58.9577 23.7504 58.7974 23.6842 58.6104C23.6181 58.4233 23.6151 58.2198 23.6755 58.0308C23.736 57.8419 23.8567 57.6779 24.0191 57.564C24.1815 57.4501 24.3767 57.3925 24.575 57.4H29.575L31.1666 52.6583Z" fill="#FBAD39"/>
<path fill-rule="evenodd" clip-rule="evenodd" d="M53.1666 52.6583C53.2242 52.4758 53.3385 52.3164 53.4928 52.2032C53.6472 52.09 53.8336 52.029 54.025 52.029C54.2164 52.029 54.4028 52.09 54.5571 52.2032C54.7115 52.3164 54.8257 52.4758 54.8833 52.6583L56.4333 57.425H61.4333C61.6315 57.4175 61.8268 57.4751 61.9892 57.589C62.1516 57.7029 62.2723 57.8669 62.3327 58.0558C62.3932 58.2448 62.3902 58.4483 62.324 58.6354C62.2579 58.8224 62.1324 58.9827 61.9666 59.0917L57.9083 62.0333L59.4583 66.8083C59.5196 66.9902 59.5212 67.1869 59.4627 67.3698C59.4043 67.5526 59.2889 67.7119 59.1335 67.8246C58.9781 67.9372 58.7907 67.9972 58.5988 67.9957C58.4068 67.9943 58.2204 67.9316 58.0666 67.8167L54 64.8417L49.9416 67.7917C49.7879 67.9066 49.6014 67.9693 49.4095 67.9707C49.2176 67.9721 49.0302 67.9122 48.8748 67.7996C48.7194 67.6869 48.604 67.5276 48.5456 67.3448C48.4871 67.1619 48.4887 66.9652 48.55 66.7833L50.1 62.0083L46.0416 59.0667C45.8759 58.9577 45.7504 58.7974 45.6842 58.6104C45.6181 58.4233 45.6151 58.2198 45.6755 58.0308C45.736 57.8419 45.8567 57.6779 46.0191 57.564C46.1815 57.4501 46.3767 57.3925 46.575 57.4H51.575L53.1666 52.6583Z" fill="#FBAD39"/>
<path fill-rule="evenodd" clip-rule="evenodd" d="M75.1666 52.6583C75.2242 52.4758 75.3385 52.3164 75.4928 52.2032C75.6472 52.09 75.8336 52.029 76.025 52.029C76.2164 52.029 76.4028 52.09 76.5571 52.2032C76.7115 52.3164 76.8257 52.4758 76.8833 52.6583L78.4333 57.425H83.4333C83.6315 57.4175 83.8268 57.4751 83.9892 57.589C84.1516 57.7029 84.2723 57.8669 84.3327 58.0558C84.3932 58.2448 84.3902 58.4483 84.324 58.6354C84.2579 58.8224 84.1324 58.9827 83.9666 59.0917L79.9083 62.0333L81.4583 66.8083C81.5196 66.9902 81.5212 67.1869 81.4627 67.3698C81.4043 67.5526 81.2889 67.7119 81.1335 67.8246C80.9781 67.9372 80.7907 67.9972 80.5988 67.9957C80.4068 67.9943 80.2204 67.9316 80.0666 67.8167L76 64.8417L71.9416 67.7917C71.7879 67.9066 71.6014 67.9693 71.4095 67.9707C71.2176 67.9721 71.0302 67.9122 70.8748 67.7996C70.7194 67.6869 70.604 67.5276 70.5456 67.3448C70.4871 67.1619 70.4887 66.9652 70.55 66.7833L72.1 62.0083L68.0416 59.0667C67.8759 58.9577 67.7504 58.7974 67.6842 58.6104C67.6181 58.4233 67.6151 58.2198 67.6755 58.0308C67.736 57.8419 67.8567 57.6779 68.0191 57.564C68.1815 57.4501 68.3767 57.3925 68.575 57.4H73.575L75.1666 52.6583Z" fill="#FBAD39"/>
<path fill-rule="evenodd" clip-rule="evenodd" d="M97.1666 52.6583C97.2242 52.4758 97.3385 52.3164 97.4928 52.2032C97.6472 52.09 97.8336 52.029 98.025 52.029C98.2164 52.029 98.4028 52.09 98.5571 52.2032C98.7115 52.3164 98.8257 52.4758 98.8833 52.6583L100.433 57.425H105.433C105.632 57.4175 105.827 57.4751 105.989 57.589C106.152 57.7029 106.272 57.8669 106.333 58.0558C106.393 58.2448 106.39 58.4483 106.324 58.6354C106.258 58.8224 106.132 58.9827 105.967 59.0917L101.908 62.0333L103.458 66.8083C103.52 66.9902 103.521 67.1869 103.463 67.3698C103.404 67.5526 103.289 67.7119 103.133 67.8246C102.978 67.9372 102.791 67.9972 102.599 67.9957C102.407 67.9943 102.22 67.9316 102.067 67.8167L98 64.8417L93.9416 67.7917C93.7879 67.9066 93.6014 67.9693 93.4095 67.9707C93.2176 67.9722 93.0302 67.9122 92.8748 67.7996C92.7194 67.6869 92.604 67.5276 92.5456 67.3448C92.4871 67.1619 92.4887 66.9652 92.55 66.7833L94.1 62.0083L90.0416 59.0667C89.8759 58.9577 89.7504 58.7974 89.6842 58.6104C89.6181 58.4233 89.6151 58.2198 89.6755 58.0308C89.736 57.8419 89.8567 57.6779 90.0191 57.564C90.1815 57.4501 90.3767 57.3925 90.575 57.4H95.575L97.1666 52.6583Z" stroke="#90A3BF" stroke-width="1.5" stroke-linecap="round" stroke-linejoin="round"/>
</g>
<path d="M121.726 66V63.592H116.602V62.458L121.698 55.57H123.014V62.458H124.372V63.592H123.014V66H121.726ZM117.638 62.948L117.442 62.458H121.726V56.718L122.132 56.83L117.638 62.948ZM130.374 66V63.592H125.25V62.458L130.346 55.57H131.662V62.458H133.02V63.592H131.662V66H130.374ZM126.286 62.948L126.09 62.458H130.374V56.718L130.78 56.83L126.286 62.948ZM138.377 66.168C137.547 66.168 136.819 65.944 136.193 65.496C135.577 65.0387 135.097 64.4087 134.751 63.606C134.406 62.794 134.233 61.8513 134.233 60.778C134.233 59.7047 134.406 58.7667 134.751 57.964C135.097 57.152 135.577 56.522 136.193 56.074C136.809 55.626 137.533 55.402 138.363 55.402C139.194 55.402 139.917 55.626 140.533 56.074C141.149 56.522 141.63 57.152 141.975 57.964C142.33 58.7667 142.507 59.7047 142.507 60.778C142.507 61.8513 142.335 62.794 141.989 63.606C141.644 64.418 141.159 65.048 140.533 65.496C139.917 65.944 139.199 66.168 138.377 66.168ZM138.377 64.894C138.937 64.894 139.423 64.726 139.833 64.39C140.244 64.0447 140.561 63.564 140.785 62.948C141.019 62.332 141.135 61.6087 141.135 60.778C141.135 59.9473 141.019 59.224 140.785 58.608C140.561 57.992 140.239 57.516 139.819 57.18C139.409 56.844 138.923 56.676 138.363 56.676C137.803 56.676 137.318 56.844 136.907 57.18C136.497 57.516 136.175 57.992 135.941 58.608C135.717 59.224 135.605 59.9473 135.605 60.778C135.605 61.5993 135.717 62.318 135.941 62.934C136.175 63.55 136.497 64.0307 136.907 64.376C137.327 64.7213 137.817 64.894 138.377 64.894ZM146.912 66V63.102H144.014V61.884H146.912V59H148.13V61.884H151.014V63.102H148.13V66H146.912ZM154.905 66V55.57H158.587C159.277 55.57 159.884 55.7007 160.407 55.962C160.929 56.2233 161.335 56.5967 161.625 57.082C161.923 57.5673 162.073 58.1367 162.073 58.79C162.073 59.5273 161.886 60.1527 161.513 60.666C161.139 61.1793 160.635 61.548 160.001 61.772L162.423 66H160.827L158.279 61.478L159.189 62.01H156.277V66H154.905ZM156.277 60.75H158.629C159.039 60.75 159.399 60.6707 159.707 60.512C160.015 60.3533 160.253 60.1247 160.421 59.826C160.598 59.5273 160.687 59.182 160.687 58.79C160.687 58.3887 160.598 58.0433 160.421 57.754C160.253 57.4553 160.015 57.2267 159.707 57.068C159.399 56.9093 159.039 56.83 158.629 56.83H156.277V60.75ZM166.597 66.168C165.869 66.168 165.22 65.9953 164.651 65.65C164.082 65.3047 163.634 64.8333 163.307 64.236C162.98 63.6293 162.817 62.9527 162.817 62.206C162.817 61.45 162.976 60.778 163.293 60.19C163.62 59.602 164.058 59.14 164.609 58.804C165.169 58.4587 165.794 58.286 166.485 58.286C167.045 58.286 167.54 58.3887 167.969 58.594C168.408 58.79 168.776 59.0607 169.075 59.406C169.383 59.742 169.616 60.1293 169.775 60.568C169.943 60.9973 170.027 61.4453 170.027 61.912C170.027 62.0147 170.018 62.1313 169.999 62.262C169.99 62.3833 169.976 62.5 169.957 62.612H163.769V61.492H169.201L168.585 61.996C168.669 61.5107 168.622 61.0767 168.445 60.694C168.268 60.3113 168.006 60.008 167.661 59.784C167.316 59.56 166.924 59.448 166.485 59.448C166.046 59.448 165.645 59.56 165.281 59.784C164.917 60.008 164.632 60.33 164.427 60.75C164.231 61.1607 164.152 61.6507 164.189 62.22C164.152 62.7707 164.236 63.256 164.441 63.676C164.656 64.0867 164.954 64.4087 165.337 64.642C165.729 64.866 166.154 64.978 166.611 64.978C167.115 64.978 167.54 64.8613 167.885 64.628C168.23 64.3947 168.51 64.096 168.725 63.732L169.817 64.292C169.668 64.6373 169.434 64.9547 169.117 65.244C168.809 65.524 168.44 65.748 168.011 65.916C167.591 66.084 167.12 66.168 166.597 66.168ZM173.408 66L170.454 58.454H171.91L174.276 64.838H173.772L176.152 58.454H177.608L174.64 66H173.408ZM178.493 66V58.454H179.795V66H178.493ZM178.493 57.25V55.57H179.795V57.25H178.493ZM185.007 66.168C184.279 66.168 183.63 65.9953 183.061 65.65C182.492 65.3047 182.044 64.8333 181.717 64.236C181.39 63.6293 181.227 62.9527 181.227 62.206C181.227 61.45 181.386 60.778 181.703 60.19C182.03 59.602 182.468 59.14 183.019 58.804C183.579 58.4587 184.204 58.286 184.895 58.286C185.455 58.286 185.95 58.3887 186.379 58.594C186.818 58.79 187.186 59.0607 187.485 59.406C187.793 59.742 188.026 60.1293 188.185 60.568C188.353 60.9973 188.437 61.4453 188.437 61.912C188.437 62.0147 188.428 62.1313 188.409 62.262C188.4 62.3833 188.386 62.5 188.367 62.612H182.179V61.492H187.611L186.995 61.996C187.079 61.5107 187.032 61.0767 186.855 60.694C186.678 60.3113 186.416 60.008 186.071 59.784C185.726 59.56 185.334 59.448 184.895 59.448C184.456 59.448 184.055 59.56 183.691 59.784C183.327 60.008 183.042 60.33 182.837 60.75C182.641 61.1607 182.562 61.6507 182.599 62.22C182.562 62.7707 182.646 63.256 182.851 63.676C183.066 64.0867 183.364 64.4087 183.747 64.642C184.139 64.866 184.564 64.978 185.021 64.978C185.525 64.978 185.95 64.8613 186.295 64.628C186.64 64.3947 186.92 64.096 187.135 63.732L188.227 64.292C188.078 64.6373 187.844 64.9547 187.527 65.244C187.219 65.524 186.85 65.748 186.421 65.916C186.001 66.084 185.53 66.168 185.007 66.168ZM191.59 66L189 58.454H190.442L192.5 64.768L191.996 64.754L194.012 58.454H195.244L197.26 64.754L196.756 64.768L198.828 58.454H200.256L197.666 66H196.42L194.432 59.7H194.824L192.836 66H191.59ZM204.476 66.168C203.748 66.168 203.1 65.9953 202.53 65.65C201.961 65.3047 201.513 64.8333 201.186 64.236C200.86 63.6293 200.696 62.9527 200.696 62.206C200.696 61.45 200.855 60.778 201.172 60.19C201.499 59.602 201.938 59.14 202.488 58.804C203.048 58.4587 203.674 58.286 204.364 58.286C204.924 58.286 205.419 58.3887 205.848 58.594C206.287 58.79 206.656 59.0607 206.954 59.406C207.262 59.742 207.496 60.1293 207.654 60.568C207.822 60.9973 207.906 61.4453 207.906 61.912C207.906 62.0147 207.897 62.1313 207.878 62.262C207.869 62.3833 207.855 62.5 207.836 62.612H201.648V61.492H207.08L206.464 61.996C206.548 61.5107 206.502 61.0767 206.324 60.694C206.147 60.3113 205.886 60.008 205.54 59.784C205.195 59.56 204.803 59.448 204.364 59.448C203.926 59.448 203.524 59.56 203.16 59.784C202.796 60.008 202.512 60.33 202.306 60.75C202.11 61.1607 202.031 61.6507 202.068 62.22C202.031 62.7707 202.115 63.256 202.32 63.676C202.535 64.0867 202.834 64.4087 203.216 64.642C203.608 64.866 204.033 64.978 204.49 64.978C204.994 64.978 205.419 64.8613 205.764 64.628C206.11 64.3947 206.39 64.096 206.604 63.732L207.696 64.292C207.547 64.6373 207.314 64.9547 206.996 65.244C206.688 65.524 206.32 65.748 205.89 65.916C205.47 66.084 204.999 66.168 204.476 66.168ZM209.324 66V58.454H210.598V59.84L210.458 59.644C210.635 59.2147 210.906 58.8973 211.27 58.692C211.634 58.4773 212.077 58.37 212.6 58.37H213.062V59.602H212.404C211.872 59.602 211.442 59.77 211.116 60.106C210.789 60.4327 210.626 60.8993 210.626 61.506V66H209.324Z" fill="#596780"/>
</g>
<defs>
<clipPath id="clip0_44_16309">
<rect width="220" height="72" fill="white"/>
</clipPath>
<clipPath id="clip1_44_16309">
<rect width="108" height="20" fill="white" transform="translate(0 50)"/>
</clipPath>
</defs>
</svg>
