<svg width="156" height="44" viewBox="0 0 156 44" fill="none" xmlns="http://www.w3.org/2000/svg">
<rect width="156" height="44" rx="4" fill="#3563E9"/>
<path d="M27.953 29.192C27.2063 29.192 26.513 29.0533 25.873 28.776C25.233 28.488 24.689 28.0987 24.241 27.608C23.793 27.1173 23.4623 26.552 23.249 25.912L24.849 25.24C25.137 25.976 25.5583 26.5413 26.113 26.936C26.6677 27.3307 27.3077 27.528 28.033 27.528C28.4597 27.528 28.833 27.464 29.153 27.336C29.473 27.1973 29.7183 27.0053 29.889 26.76C30.0703 26.5147 30.161 26.232 30.161 25.912C30.161 25.4747 30.0383 25.128 29.793 24.872C29.5477 24.616 29.185 24.4133 28.705 24.264L26.465 23.56C25.569 23.2827 24.8863 22.8613 24.417 22.296C23.9477 21.72 23.713 21.048 23.713 20.28C23.713 19.608 23.8783 19.0213 24.209 18.52C24.5397 18.008 24.993 17.608 25.569 17.32C26.1557 17.032 26.8223 16.888 27.569 16.888C28.2837 16.888 28.9343 17.016 29.521 17.272C30.1077 17.5173 30.609 17.8587 31.025 18.296C31.4517 18.7333 31.761 19.24 31.953 19.816L30.385 20.504C30.1503 19.8747 29.7823 19.3893 29.281 19.048C28.7903 18.7067 28.2197 18.536 27.569 18.536C27.1743 18.536 26.8277 18.6053 26.529 18.744C26.2303 18.872 25.9957 19.064 25.825 19.32C25.665 19.5653 25.585 19.8533 25.585 20.184C25.585 20.568 25.7077 20.9093 25.953 21.208C26.1983 21.5067 26.5717 21.7307 27.073 21.88L29.153 22.536C30.1023 22.824 30.817 23.24 31.297 23.784C31.777 24.3173 32.017 24.984 32.017 25.784C32.017 26.4453 31.841 27.032 31.489 27.544C31.1477 28.056 30.673 28.4613 30.065 28.76C29.457 29.048 28.753 29.192 27.953 29.192ZM33.6404 29V16.888H35.4484V22.04L35.1604 21.816C35.3737 21.272 35.715 20.8613 36.1844 20.584C36.6537 20.296 37.1977 20.152 37.8164 20.152C38.4564 20.152 39.0217 20.2907 39.5124 20.568C40.003 20.8453 40.387 21.2293 40.6644 21.72C40.9417 22.2107 41.0804 22.7707 41.0804 23.4V29H39.2884V23.896C39.2884 23.4587 39.203 23.0907 39.0324 22.792C38.8724 22.4827 38.6484 22.248 38.3604 22.088C38.0724 21.9173 37.7417 21.832 37.3684 21.832C37.0057 21.832 36.675 21.9173 36.3764 22.088C36.0884 22.248 35.859 22.4827 35.6884 22.792C35.5284 23.1013 35.4484 23.4693 35.4484 23.896V29H33.6404ZM46.8714 29.192C46.0394 29.192 45.2767 28.9947 44.5834 28.6C43.9007 28.2053 43.3567 27.6667 42.9514 26.984C42.546 26.3013 42.3434 25.528 42.3434 24.664C42.3434 23.7893 42.546 23.016 42.9514 22.344C43.3567 21.6613 43.9007 21.128 44.5834 20.744C45.266 20.3493 46.0287 20.152 46.8714 20.152C47.7247 20.152 48.4874 20.3493 49.1594 20.744C49.842 21.128 50.3807 21.6613 50.7754 22.344C51.1807 23.016 51.3834 23.7893 51.3834 24.664C51.3834 25.5387 51.1807 26.3173 50.7754 27C50.37 27.6827 49.826 28.2213 49.1434 28.616C48.4607 29 47.7034 29.192 46.8714 29.192ZM46.8714 27.512C47.3834 27.512 47.8367 27.3893 48.2314 27.144C48.626 26.8987 48.9354 26.5627 49.1594 26.136C49.394 25.6987 49.5114 25.208 49.5114 24.664C49.5114 24.12 49.394 23.6347 49.1594 23.208C48.9354 22.7813 48.626 22.4453 48.2314 22.2C47.8367 21.9547 47.3834 21.832 46.8714 21.832C46.37 21.832 45.9167 21.9547 45.5114 22.2C45.1167 22.4453 44.802 22.7813 44.5674 23.208C44.3434 23.6347 44.2314 24.12 44.2314 24.664C44.2314 25.208 44.3434 25.6987 44.5674 26.136C44.802 26.5627 45.1167 26.8987 45.5114 27.144C45.9167 27.3893 46.37 27.512 46.8714 27.512ZM54.7682 29L51.7922 20.344H53.7122L55.9842 27.24H55.3122L57.6322 20.344H59.2802L61.5842 27.24H60.9122L63.2002 20.344H65.1202L62.1282 29H60.4962L58.1602 21.944H58.7522L56.4162 29H54.7682ZM68.5166 29V20.344H70.2446V22.216L70.0206 21.928C70.202 21.3413 70.5326 20.8987 71.0126 20.6C71.4926 20.3013 72.042 20.152 72.6606 20.152C73.354 20.152 73.9673 20.3387 74.5006 20.712C75.0446 21.0747 75.4073 21.56 75.5886 22.168L75.0766 22.216C75.3326 21.5227 75.722 21.0053 76.2446 20.664C76.778 20.3227 77.386 20.152 78.0686 20.152C78.666 20.152 79.2046 20.2907 79.6846 20.568C80.1753 20.8453 80.5646 21.2293 80.8526 21.72C81.1406 22.2107 81.2846 22.7707 81.2846 23.4V29H79.4766V23.896C79.4766 23.4587 79.3966 23.0907 79.2366 22.792C79.0873 22.4827 78.874 22.248 78.5966 22.088C78.33 21.9173 78.0153 21.832 77.6526 21.832C77.29 21.832 76.97 21.9173 76.6926 22.088C76.4153 22.248 76.1966 22.4827 76.0366 22.792C75.8766 23.1013 75.7966 23.4693 75.7966 23.896V29H74.0046V23.896C74.0046 23.4587 73.9246 23.0907 73.7646 22.792C73.6153 22.4827 73.402 22.248 73.1246 22.088C72.858 21.9173 72.538 21.832 72.1646 21.832C71.802 21.832 71.482 21.9173 71.2046 22.088C70.9273 22.248 70.7086 22.4827 70.5486 22.792C70.3993 23.1013 70.3246 23.4693 70.3246 23.896V29H68.5166ZM87.0758 29.192C86.2438 29.192 85.4811 28.9947 84.7878 28.6C84.1051 28.2053 83.5611 27.6667 83.1558 26.984C82.7504 26.3013 82.5478 25.528 82.5478 24.664C82.5478 23.7893 82.7504 23.016 83.1558 22.344C83.5611 21.6613 84.1051 21.128 84.7878 20.744C85.4704 20.3493 86.2331 20.152 87.0758 20.152C87.9291 20.152 88.6918 20.3493 89.3638 20.744C90.0464 21.128 90.5851 21.6613 90.9798 22.344C91.3851 23.016 91.5878 23.7893 91.5878 24.664C91.5878 25.5387 91.3851 26.3173 90.9798 27C90.5744 27.6827 90.0304 28.2213 89.3478 28.616C88.6651 29 87.9078 29.192 87.0758 29.192ZM87.0758 27.512C87.5878 27.512 88.0411 27.3893 88.4358 27.144C88.8304 26.8987 89.1398 26.5627 89.3638 26.136C89.5984 25.6987 89.7158 25.208 89.7158 24.664C89.7158 24.12 89.5984 23.6347 89.3638 23.208C89.1398 22.7813 88.8304 22.4453 88.4358 22.2C88.0411 21.9547 87.5878 21.832 87.0758 21.832C86.5744 21.832 86.1211 21.9547 85.7158 22.2C85.3211 22.4453 85.0064 22.7813 84.7718 23.208C84.5478 23.6347 84.4358 24.12 84.4358 24.664C84.4358 25.208 84.5478 25.6987 84.7718 26.136C85.0064 26.5627 85.3211 26.8987 85.7158 27.144C86.1211 27.3893 86.5744 27.512 87.0758 27.512ZM93.0329 29V20.344H94.7609V22.088L94.6009 21.832C94.7929 21.2667 95.1022 20.8613 95.5289 20.616C95.9555 20.36 96.4675 20.232 97.0649 20.232H97.5929V21.88H96.8409C96.2435 21.88 95.7582 22.0667 95.3849 22.44C95.0222 22.8027 94.8409 23.3253 94.8409 24.008V29H93.0329ZM102.574 29.192C101.71 29.192 100.942 28.9947 100.27 28.6C99.6084 28.1947 99.0911 27.6507 98.7178 26.968C98.3444 26.2747 98.1578 25.5013 98.1578 24.648C98.1578 23.7733 98.3444 23 98.7178 22.328C99.1018 21.656 99.6138 21.128 100.254 20.744C100.894 20.3493 101.619 20.152 102.43 20.152C103.08 20.152 103.662 20.264 104.174 20.488C104.686 20.712 105.118 21.0213 105.47 21.416C105.822 21.8 106.088 22.2427 106.27 22.744C106.462 23.2453 106.558 23.7787 106.558 24.344C106.558 24.4827 106.552 24.6267 106.542 24.776C106.531 24.9253 106.51 25.064 106.478 25.192H99.5818V23.752H105.454L104.59 24.408C104.696 23.8853 104.659 23.4213 104.478 23.016C104.307 22.6 104.04 22.2747 103.678 22.04C103.326 21.7947 102.91 21.672 102.43 21.672C101.95 21.672 101.523 21.7947 101.15 22.04C100.776 22.2747 100.488 22.616 100.286 23.064C100.083 23.5013 100.003 24.0347 100.046 24.664C99.9924 25.2507 100.072 25.7627 100.286 26.2C100.51 26.6373 100.819 26.9787 101.214 27.224C101.619 27.4693 102.078 27.592 102.59 27.592C103.112 27.592 103.555 27.4747 103.918 27.24C104.291 27.0053 104.584 26.7013 104.798 26.328L106.27 27.048C106.099 27.4533 105.832 27.8213 105.47 28.152C105.118 28.472 104.691 28.728 104.19 28.92C103.699 29.1013 103.16 29.192 102.574 29.192ZM114.591 29.192C113.727 29.192 112.959 28.9947 112.287 28.6C111.626 28.1947 111.098 27.6507 110.703 26.968C110.319 26.2853 110.127 25.512 110.127 24.648C110.127 23.7947 110.319 23.0267 110.703 22.344C111.087 21.6613 111.615 21.128 112.287 20.744C112.959 20.3493 113.727 20.152 114.591 20.152C115.178 20.152 115.727 20.2587 116.239 20.472C116.751 20.6747 117.194 20.9573 117.567 21.32C117.951 21.6827 118.234 22.104 118.415 22.584L116.831 23.32C116.65 22.872 116.356 22.5147 115.951 22.248C115.556 21.9707 115.103 21.832 114.591 21.832C114.1 21.832 113.658 21.9547 113.263 22.2C112.879 22.4347 112.575 22.7707 112.351 23.208C112.127 23.6347 112.015 24.12 112.015 24.664C112.015 25.208 112.127 25.6987 112.351 26.136C112.575 26.5627 112.879 26.8987 113.263 27.144C113.658 27.3893 114.1 27.512 114.591 27.512C115.114 27.512 115.567 27.3787 115.951 27.112C116.346 26.8347 116.639 26.4667 116.831 26.008L118.415 26.76C118.244 27.2187 117.967 27.6347 117.583 28.008C117.21 28.3707 116.767 28.6587 116.255 28.872C115.743 29.0853 115.188 29.192 114.591 29.192ZM122.376 29.192C121.789 29.192 121.272 29.0907 120.824 28.888C120.387 28.6747 120.045 28.3867 119.8 28.024C119.555 27.6507 119.432 27.2133 119.432 26.712C119.432 26.2427 119.533 25.8213 119.736 25.448C119.949 25.0747 120.275 24.76 120.712 24.504C121.149 24.248 121.699 24.0667 122.36 23.96L125.368 23.464V24.888L122.712 25.352C122.232 25.4373 121.88 25.592 121.656 25.816C121.432 26.0293 121.32 26.3067 121.32 26.648C121.32 26.9787 121.443 27.2507 121.688 27.464C121.944 27.6667 122.269 27.768 122.664 27.768C123.155 27.768 123.581 27.6613 123.944 27.448C124.317 27.2347 124.605 26.952 124.808 26.6C125.011 26.2373 125.112 25.8373 125.112 25.4V23.176C125.112 22.7493 124.952 22.4027 124.632 22.136C124.323 21.8587 123.907 21.72 123.384 21.72C122.904 21.72 122.483 21.848 122.12 22.104C121.768 22.3493 121.507 22.6693 121.336 23.064L119.832 22.312C119.992 21.8853 120.253 21.512 120.616 21.192C120.979 20.8613 121.4 20.6053 121.88 20.424C122.371 20.2427 122.888 20.152 123.432 20.152C124.115 20.152 124.717 20.28 125.24 20.536C125.773 20.792 126.184 21.1493 126.472 21.608C126.771 22.056 126.92 22.5787 126.92 23.176V29H125.192V27.432L125.56 27.48C125.357 27.832 125.096 28.136 124.776 28.392C124.467 28.648 124.109 28.8453 123.704 28.984C123.309 29.1227 122.867 29.192 122.376 29.192ZM128.714 29V20.344H130.442V22.088L130.282 21.832C130.474 21.2667 130.783 20.8613 131.21 20.616C131.637 20.36 132.149 20.232 132.746 20.232H133.274V21.88H132.522C131.925 21.88 131.439 22.0667 131.066 22.44C130.703 22.8027 130.522 23.3253 130.522 24.008V29H128.714Z" fill="white"/>
</svg>
